PathFileType	4	(X/Y/Z)	Patient4_TMGait_0pt2_02_right_08.trc.trc
DataRate	CameraRate	NumFrames	NumMarkers	Units	OrigDataRate	OrigDataStartFrame	OrigNumFrames
43.343653250774	43.343653250774	4	33	mm	43.343653250774	106	       141
Frame#	Time	R.Midfoot.Superior			Sacral			L.Shoulder			Chest			R.Shoulder			Neck			R.ASIS			L.ASIS			R.Thigh.Superior			R.Thigh.Lateral			R.Thigh.Inferior			R.Patella			L.Thigh.Superior			L.Thigh.Lateral			L.Thigh.Inferior			L.Patella			L.Shank.Superior			L.Shank.Lateral			L.Shank.Inferior			R.Shank.Superior			R.Shank.Lateral			R.Shank.Inferior			R.Heel			R.Midfoot.Lateral			R.Toe			L.Heel			L.Midfoot.Lateral			L.Midfoot.Superior			L.Toe			L.Elbow			L.Wrist			R.Elbow			R.Wrist			
		X1	Y1	Z1	X2	Y2	Z2	X3	Y3	Z3	X4	Y4	Z4	X5	Y5	Z5	X6	Y6	Z6	X7	Y7	Z7	X8	Y8	Z8	X9	Y9	Z9	X10	Y10	Z10	X11	Y11	Z11	X12	Y12	Z12	X13	Y13	Z13	X14	Y14	Z14	X15	Y15	Z15	X16	Y16	Z16	X17	Y17	Z17	X18	Y18	Z18	X19	Y19	Z19	X20	Y20	Z20	X21	Y21	Z21	X22	Y22	Z22	X23	Y23	Z23	X24	Y24	Z24	X25	Y25	Z25	X26	Y26	Z26	X27	Y27	Z27	X28	Y28	Z28	X29	Y29	Z29	X30	Y30	Z30	X31	Y31	Z31	X32	Y32	Z32	X33	Y33	Z33	

106	19.292500000000	924.219916722012	147.087263694286	594.004955512294	825.755918590688	980.713350299061	405.306571352032	1020.459132016130	1414.468348082932	229.256121852548	1115.110300971753	1340.080398812894	392.276430022113	1028.437086923861	1409.797245654508	565.267649036494	998.637485457950	1472.858260553145	388.168171212372	1057.825620437443	922.758386561597	523.188510233118	1045.365657709697	940.713779976789	249.425889868596	1139.386733156787	745.914432901391	493.312449951985	1096.826940116855	629.614660754656	573.671085552731	1180.784873722072	583.053886215969	491.619858834107	1194.483414705253	470.550912547084	519.501498462138	1117.511675334979	743.263712647638	297.210829481198	1053.499257721202	608.049183904594	247.830463765107	1145.228524619279	549.545534037555	323.994759483896	1154.622240100691	473.455900275159	336.506111040893	1113.040837476578	397.010508007776	332.294679927018	1008.978904821071	295.013909118606	282.323991716628	1034.366097418951	181.413485030953	358.992129125136	1113.933644977501	400.613238337581	536.651175532264	995.484414292461	374.182732234794	611.162473758902	966.839408840006	264.079404855621	569.573905214474	757.291577705478	222.698521512083	567.579326252505	817.654223723083	157.675565222899	635.851700172895	980.215912029161	32.319215536937	613.400104781055	884.983516863107	39.383563013328	401.502376412496	957.933789568560	36.451872609225	319.957781112346	1042.856867933307	95.189847837730	347.596277045255	1170.002662562409	41.051001135843	314.936977467592	1105.152401850070	1079.858672556306	93.523984210953	1259.549281772124	869.037505944041	108.379772556672	988.345007712100	1056.622214604974	674.162381575708	1053.434395491964	803.627826908552	687.655553039697	
107	19.315571428571	937.898141604090	147.964130365810	594.289148704538	823.253176955038	981.319811339658	400.997517549891	1023.533706599341	1415.362748497279	229.201780568728	1113.634264797488	1340.694693371844	394.621111472662	1022.290168284499	1410.265262936141	565.273471415024	997.601502727632	1473.448153107082	387.696851794790	1053.514109872323	924.138218181719	523.298393878995	1045.703852020973	941.090082756110	249.293202768258	1138.542187419488	750.419506583053	493.163623048130	1098.483747148553	633.485424004905	573.825057713565	1183.553830557310	588.394582123905	491.989227752330	1199.897756034939	476.390298436033	520.300068390605	1116.112186526827	742.611666778749	297.416212924566	1051.496001888139	607.884998735423	247.558720636875	1141.968981854679	548.918750459319	324.768818293101	1150.889422783822	473.037914144984	337.495985374048	1109.086200114575	396.756659575076	332.784015648626	1005.111361615183	294.920040681745	282.317782567752	1029.966285441417	181.298191901006	359.157851832224	1120.766484305803	404.743974962074	537.374678311837	1002.627345719528	375.837087057431	611.144443753653	977.262629131460	264.983512165837	569.802286098028	769.506799902804	217.454543622540	566.331405665596	831.218000331907	155.246028294609	635.552932180680	997.386996316533	34.128475735777	615.135301109143	880.278672670053	39.366532507557	401.411764345428	953.291514277507	36.432413440154	319.880416814620	1038.237522370767	95.166280950505	347.601341648208	1165.380352971426	40.990423291253	314.945749738241	1119.309338312367	1085.522619666048	91.487984509287	1286.595014175139	884.560496059372	106.461489130290	963.393277757574	1060.454590403997	673.596502202360	1010.790983089162	803.562400928271	688.996458892225	
108	19.338642857143	954.417539976798	147.321958615721	595.025702688833	820.759592887225	982.985479918639	397.048261023688	1026.847095806066	1416.838283088331	229.415919329840	1112.289584430762	1342.014923532770	397.167790983248	1016.442870838475	1411.827046002343	565.228022193245	996.813948513017	1474.810922423948	387.305927034347	1048.869187257271	926.201440954504	523.938481919146	1045.893938158892	942.113348250601	249.826138100395	1136.332860522133	755.007049970451	493.726578139575	1098.059790623377	637.628953652424	574.542654630249	1183.955453476910	593.694474180245	492.962399421771	1202.822580998262	482.714440331886	521.592385337243	1113.929631982908	742.310190198658	298.103103405518	1048.309268750223	608.328915757513	247.524409405125	1137.277642220807	548.598895148567	325.675119620090	1145.526111411661	473.054069642877	338.530580625979	1103.760703360642	397.037740894716	333.238626387893	1000.221706934388	295.042584905802	282.292834232905	1025.058264038527	181.467105472153	359.282287947828	1126.069295426545	409.051774513628	538.615702242648	1009.187122381046	376.020612594540	611.846453377478	988.633092100347	264.445211986664	570.562866883180	783.966799094280	207.456245126700	565.891881506329	848.029489618635	149.341108348389	635.877126778008	1019.203281348406	36.444375391926	617.047677473702	875.529883721015	39.315730835987	401.329752509017	948.604731131067	36.399754257368	319.798368104222	1033.553676371467	95.176180713816	347.563198312135	1160.708987553173	41.012784829715	314.964554897207	1132.900541679614	1091.999621225683	90.028682365986	1312.538347642683	901.878004561903	105.141909484375	939.087127407983	1066.266001739098	672.437000133638	970.305155107924	806.997625437745	688.779105362461	
109	19.361714285714	973.687534842663	145.281953060128	596.220533421086	818.272374395182	985.541070021943	393.474617856850	1030.345159839985	1418.737357990859	229.876685649770	1111.063123444225	1343.898756249752	399.870985456310	1010.947275802468	1414.342421112959	565.124689342083	996.264714873103	1476.804280015785	386.983667063333	1043.901490710442	928.800202780568	525.099136774067	1045.931138138182	943.646847140810	250.997763666013	1132.800258031510	759.444909255338	495.007281369180	1095.581879022476	641.796182098966	575.811341811424	1182.037043892246	598.684136033067	494.530699615147	1203.269312657781	489.256160037893	523.354908587430	1111.023594089731	742.306912829168	299.243187983603	1044.085752384792	609.301042889877	247.694653955773	1131.345056760607	548.550290813863	326.673944536466	1138.748956049701	473.450744869343	339.567266825017	1097.255687907187	397.777521398105	333.637394294318	994.446567769128	295.345930280335	282.243071576937	1019.711963671784	181.878140938736	359.371885372415	1129.868494740011	413.360921257219	540.344479099314	1015.288417381959	374.691643435445	613.255994153306	1000.990097984822	262.571006384771	571.863675920414	800.913494290969	193.327718847800	566.293284197824	868.098800489877	140.359925006132	636.797178844678	1045.184173854051	39.227232427134	619.041839310109	870.747116117757	39.231552470668	401.261112454434	943.879148385002	36.354081678226	319.715323311937	1028.813313087024	95.214034575465	347.492843425034	1155.995296861471	41.109726814162	314.995058651921	1145.934099558607	1099.086617627286	89.126377811105	1337.259560215685	920.730355501050	104.514553399195	915.793599180086	1073.759472124393	670.616358560516	932.491368038240	813.253709945043	687.040462351274	
